<?xml version="1.0" standalone="no"?>
<!DOCTYPE svg PUBLIC "-//W3C//DTD SVG 20010904//EN"
 "http://www.w3.org/TR/2001/REC-SVG-20010904/DTD/svg10.dtd">
<svg version="1.0" xmlns="http://www.w3.org/2000/svg"
 width="908.000000pt" height="974.000000pt" viewBox="0 0 908.000000 974.000000"
 preserveAspectRatio="xMidYMid meet">

<g transform="translate(0.000000,974.000000) scale(0.100000,-0.100000)"
fill="#000000" stroke="none">
<path d="M4399 9403 c-100 -109 -233 -252 -294 -318 -675 -725 -715 -768 -715
-780 0 -21 72 -160 125 -242 67 -102 204 -246 306 -323 150 -112 360 -202 544
-234 115 -20 334 -21 447 -1 335 59 641 258 837 544 64 94 131 223 131 253 0
10 -91 116 -202 235 -111 120 -252 272 -313 338 -62 66 -237 255 -390 420
-152 165 -281 301 -285 303 -4 2 -90 -86 -191 -195z"/>
<path d="M2390 7238 c-184 -199 -367 -396 -406 -438 -139 -149 -351 -377 -464
-500 -63 -69 -148 -161 -190 -205 -84 -89 -270 -291 -346 -375 -53 -59 -50
-58 41 15 138 111 377 251 540 315 273 108 554 162 855 162 164 0 274 -12 439
-48 815 -176 1477 -820 1671 -1627 44 -182 73 -414 65 -513 -14 -170 32 -465
110 -701 204 -618 674 -1112 1287 -1351 275 -108 614 -163 871 -142 252 21
361 39 543 91 325 93 664 292 912 537 391 386 628 923 644 1457 l3 90 -450 5
-450 5 -7 90 c-38 457 -295 843 -698 1049 -160 81 -366 136 -511 136 l-59 0 0
-1280 c0 -1017 -3 -1280 -12 -1281 -42 -4 -155 5 -228 17 -448 78 -849 425
-989 859 -45 139 -63 238 -68 385 -26 674 508 1257 1204 1316 l83 7 2 451 3
451 90 -3 c432 -15 872 -172 1230 -440 116 -87 121 -94 -145 193 -473 510
-822 888 -925 1000 -60 66 -139 152 -176 190 -36 39 -142 151 -233 250 -92 99
-171 181 -175 183 -5 2 -30 -28 -57 -65 -270 -382 -628 -658 -1059 -818 -122
-45 -315 -92 -455 -111 -123 -16 -406 -18 -535 -4 -599 67 -1154 385 -1511
865 -41 55 -83 110 -92 123 l-17 23 -335 -363z"/>
<path d="M3986 1660 l-598 -598 48 -32 c137 -87 436 -215 613 -260 198 -51
576 -76 788 -51 209 25 441 87 636 172 90 39 307 158 307 168 0 3 -269 275
-597 603 l-598 597 -599 -599z"/>
</g>
</svg>
